<svg width="50" height="50" viewBox="0 0 50 50" fill="none" xmlns="http://www.w3.org/2000/svg">
<g clip-path="url(#clip0_101_166)">
<path d="M25 0C11.2146 0 0 11.2146 0 25C0 38.7854 11.2146 50 25 50C25.2521 50 25.4979 49.9688 25.75 49.9625L25.8375 49.9792C25.9062 49.9917 25.9729 50 26.0417 50C26.1375 50 26.2354 49.9875 26.3271 49.9604L26.4438 49.9271C39.5563 49.1708 50 38.298 50 25C50 11.2146 38.7854 0 25 0ZM39.8583 42.4146C39.7603 42.0958 39.5396 41.8271 39.2188 41.7208L33.7354 39.8958C31.8209 39.0979 30.9292 36.0333 30.7209 34.8041C32.1396 33.4854 33.4501 31.5208 33.4501 29.7458C33.4501 29.1416 33.6209 28.9104 33.5876 28.9041C33.9126 28.8229 34.1771 28.5916 34.3021 28.2812C34.4042 28.0249 35.3021 25.7354 35.3021 24.1916C35.3021 24.1062 35.2917 24.0208 35.2709 23.9396C35.1396 23.4166 34.8334 22.8896 34.3751 22.5604V17.7104C34.3751 14.7124 33.4626 13.4562 32.4959 12.7291C32.2792 11.2374 30.6813 8.33535 25.0001 8.33535C19.1918 8.33535 15.6251 13.7958 15.6251 17.7104V22.5604C15.1668 22.8896 14.8605 23.4166 14.7293 23.9396C14.7085 24.0229 14.698 24.1083 14.698 24.1916C14.698 25.7354 15.596 28.0249 15.698 28.2812C15.823 28.5916 15.9876 28.7895 16.3126 28.8707C16.3793 28.9103 16.5501 29.1437 16.5501 29.7457C16.5501 31.5207 17.8605 33.4853 19.2793 34.804C19.073 36.0311 18.1897 39.0936 16.3355 39.8686L10.7793 41.7206C10.4605 41.8269 10.2313 42.0894 10.1313 42.4081C5.2125 38.202 2.0792 31.9646 2.0792 25C2.0792 12.3646 12.3604 2.0833 24.9959 2.0833C37.6313 2.0833 47.9125 12.3646 47.9125 25C47.9167 31.9667 44.7812 38.2083 39.8583 42.4146Z" fill="#474867"/>
</g>
<defs>
<clipPath id="clip0_101_166">
<rect width="50" height="50" fill="white"/>
</clipPath>
</defs>
</svg>
