<svg width="50" height="50" viewBox="0 0 50 50" fill="none" xmlns="http://www.w3.org/2000/svg">
<path d="M26.1215 26.7304L35.9062 23.0033V32.1304C35.9062 34.0967 31.2523 35.6962 25.5 35.6962C19.7477 35.6962 15.0938 34.0967 15.0938 32.1304V23.0033L24.9074 26.7304L25.5145 26.9652L26.1215 26.7304ZM25.5145 25.087L44 18.0435L25.5145 11L7 18.0435L9.89062 19.144V31.1473C9.21133 31.4701 8.73438 32.1891 8.73438 33.0109V38H12.7812V33.0109C12.7812 32.1745 12.3043 31.4554 11.6105 31.1326V19.7897L25.5145 25.087Z" fill="#474867"/>
<rect x="1" y="1" width="48" height="48" rx="24" stroke="#474867" stroke-width="2" stroke-miterlimit="3.93356"/>
</svg>
