<svg width="51" height="51" viewBox="0 0 51 51" fill="none" xmlns="http://www.w3.org/2000/svg">
<path fill-rule="evenodd" clip-rule="evenodd" d="M25.5 0C39.5836 0 51 11.7043 51 26.145C51 37.6939 43.7019 47.4911 33.5758 50.9514C32.283 51.209 31.824 50.3925 31.824 49.6964C31.824 48.8345 31.8546 46.0194 31.8546 42.5208C31.8546 40.083 31.0386 38.4919 30.1232 37.681C35.802 37.0333 41.769 34.8222 41.769 24.7803C41.769 21.9243 40.7796 19.5937 39.1425 17.7628C39.4077 17.1024 40.2823 14.4431 38.8926 10.8425C38.8926 10.8425 36.7557 10.1419 31.8877 13.5232C29.8503 12.9444 27.6675 12.6531 25.5 12.6429C23.3325 12.6531 21.1523 12.9444 19.1174 13.5232C14.2443 10.1419 12.1023 10.8425 12.1023 10.8425C10.7177 14.4431 11.5923 17.1024 11.855 17.7628C10.2255 19.5937 9.22846 21.9243 9.22846 24.7803C9.22846 34.7967 15.1827 37.0417 20.8463 37.7021C20.117 38.3549 19.4565 39.5065 19.227 41.1972C17.7735 41.8653 14.0811 43.0216 11.8065 39.0257C11.8065 39.0257 10.4576 36.5136 7.89735 36.33C7.89735 36.33 5.4111 36.297 7.72395 37.9188C7.72395 37.9188 9.3942 38.722 10.5545 41.7438C10.5545 41.7438 12.0513 46.4102 19.1454 44.8292C19.1582 47.0145 19.1811 49.0742 19.1811 49.6964C19.1811 50.3874 18.7119 51.1962 17.4394 50.9539C7.30574 47.4987 0 37.6965 0 26.145C0 11.7043 11.4189 0 25.5 0Z" fill="white"/>
</svg>
