<svg width="40" height="40" viewBox="0 0 40 40" fill="none" xmlns="http://www.w3.org/2000/svg">
<path d="M40 20C40 23.9556 38.827 27.8224 36.6294 31.1114C34.4318 34.4004 31.3082 36.9638 27.6537 38.4776C23.9992 39.9913 19.9778 40.3874 16.0982 39.6157C12.2186 38.844 8.65492 36.9392 5.85787 34.1421C3.06082 31.3451 1.15601 27.7814 0.384303 23.9018C-0.387401 20.0222 0.00866562 16.0009 1.52242 12.3463C3.03617 8.69181 5.59962 5.56823 8.8886 3.37061C12.1776 1.17298 16.0444 0 20 0C25.3043 0 30.3914 2.10714 34.1421 5.85786C37.8929 9.60859 40 14.6957 40 20ZM34.115 12.85C34.1143 12.638 34.0298 12.4349 33.88 12.285C33.7301 12.1352 33.527 12.0507 33.315 12.05H6.68501C6.47304 12.0507 6.26994 12.1352 6.12005 12.285C5.97016 12.4349 5.88567 12.638 5.88501 12.85V27.155C5.88567 27.367 5.97016 27.5701 6.12005 27.72C6.26994 27.8698 6.47304 27.9543 6.68501 27.955H33.315C33.527 27.9543 33.7301 27.8698 33.88 27.72C34.0298 27.5701 34.1143 27.367 34.115 27.155V12.85ZM22.32 16.995H10.885V18.995H22.32V16.995ZM22.32 21.5075H10.885V23.5075H22.32V21.5075ZM31.315 18.8975V14.8525H27.32V18.895L31.315 18.8975Z" fill="white"/>
</svg>
